<svg width="30" height="30" viewBox="0 0 30 30" fill="none" xmlns="http://www.w3.org/2000/svg">
<g clip-path="url(#clip0_11136_7538)">
<path d="M21.1442 17.3124C23.8058 12.9262 23.2433 7.1192 19.4584 3.3343C15.0128 -1.11134 7.77937 -1.11134 3.33424 3.33377C-1.11141 7.77941 -1.11141 15.0128 3.33424 19.4585C7.11913 23.2434 12.9262 23.8058 17.3123 21.1442C18.0774 20.6806 18.7988 20.1176 19.4584 19.4579C20.1181 18.7982 20.6806 18.0774 21.1442 17.3124ZM5.04676 17.7459C1.54582 14.245 1.54582 8.54828 5.04731 5.04683C8.54826 1.5459 14.245 1.54589 17.7459 5.04681C21.2468 8.54773 21.2469 14.2445 17.7459 17.7454C14.2444 21.2469 8.5477 21.2469 5.04676 17.7459Z" fill="#4296FF"/>
<path d="M29.108 24.797L22.4433 18.1323C22.415 18.1806 22.3867 18.229 22.3577 18.2769C21.8579 19.1016 21.2539 19.8703 20.5626 20.5616C19.871 21.2532 19.1021 21.8574 18.2771 22.3573C18.2293 22.3863 18.181 22.4145 18.1328 22.4428L24.7975 29.1075C25.3927 29.7027 26.1726 30.0006 26.9525 30C27.7329 30 28.5128 29.7021 29.1074 29.1075C30.2978 27.9171 30.2984 25.9874 29.108 24.797Z" fill="#4296FF"/>
<path d="M16.7696 10.4106H12.3816V6.02259C12.3816 5.47832 11.9404 5.03713 11.3961 5.03711C10.8518 5.03711 10.4106 5.4783 10.4106 6.02259V10.4106H6.0226C5.47831 10.4106 5.03711 10.8518 5.03711 11.3961C5.03715 11.9403 5.47834 12.3815 6.0226 12.3816H10.4106V16.7696C10.4107 17.3138 10.8518 17.755 11.3961 17.755C11.6682 17.755 11.9146 17.6448 12.0929 17.4664C12.2713 17.2881 12.3816 17.0417 12.3816 16.7696V12.3816H16.7696C17.0418 12.3816 17.2881 12.2713 17.4664 12.0929C17.6448 11.9146 17.7551 11.6682 17.7551 11.3961C17.7551 10.8518 17.3139 10.4106 16.7696 10.4106Z" fill="#4296FF"/>
</g>
<defs>
<clipPath id="clip0_11136_7538">
<rect width="30" height="30" fill="white"/>
</clipPath>
</defs>
</svg>
