<svg width="243" height="231" viewBox="0 0 243 231" fill="none" xmlns="http://www.w3.org/2000/svg">
<path d="M121.582 23.9361L25.1164 94.0226L61.963 207.425H181.201L218.048 94.0226L121.582 23.9361Z" stroke="#919191" stroke-miterlimit="10"/>
<path d="M121.582 46.8722L49.2328 99.4371L76.8678 184.489H166.296L193.931 99.4371L121.582 46.8722Z" stroke="#919191" stroke-miterlimit="10"/>
<path d="M121.582 69.8083L73.3493 104.852L91.7726 161.553H151.392L169.815 104.852L121.582 69.8083Z" stroke="#919191" stroke-miterlimit="10"/>
<path d="M121.582 92.7444L97.4657 110.266L106.677 138.617H136.487L145.699 110.266L121.582 92.7444Z" stroke="#919191" stroke-miterlimit="10"/>
<path d="M121.582 1L1 88.6081L47.0583 230.361H196.106L242.164 88.6081L121.582 1Z" stroke="#919191" stroke-miterlimit="10"/>
<path d="M121.582 116.809V1" stroke="#919191" stroke-miterlimit="10"/>
<path d="M196.106 230.361L121.582 116.809" stroke="#919191" stroke-miterlimit="10"/>
<path d="M47.0583 230.361L121.582 116.809" stroke="#919191" stroke-miterlimit="10"/>
<path d="M1 88.6081L121.582 116.809" stroke="#919191" stroke-miterlimit="10"/>
<path d="M242.164 88.6081L121.582 116.809" stroke="#919191" stroke-miterlimit="10"/>
</svg>
