<svg width="31" height="31" viewBox="0 0 31 31" fill="none" xmlns="http://www.w3.org/2000/svg">
<path d="M0 15.5C0 6.93959 6.93959 0 15.5 0C24.0604 0 31 6.93959 31 15.5V31H15.5C6.93959 31 0 24.0604 0 15.5Z" fill="#4296FF"/>
<path d="M9.51074 23.5566L9.48926 21.2148L15.0752 16.0801C16.5254 14.6943 17.3096 13.835 17.3096 12.5996C17.3096 11.2139 16.2676 10.3545 14.8389 10.3652C13.3779 10.3545 12.4219 11.2783 12.4326 12.7715H9.36035C9.34961 9.73145 11.6055 7.78711 14.8818 7.78711C18.2119 7.78711 20.4248 9.68848 20.4248 12.3848C20.4248 14.1572 19.5654 15.6074 16.3643 18.5078L14.001 20.8066V20.8926H20.6396V23.5566H9.51074Z" fill="white"/>
</svg>
